<svg width="243" height="54" viewBox="0 0 243 54" fill="none" xmlns="http://www.w3.org/2000/svg">
<path d="M61.9687 5.0349C62.3437 4.96049 62.7937 4.91089 63.3468 4.91089C64.1062 4.91089 64.7062 5.09277 65.0812 5.42347C65.4093 5.71284 65.6062 6.12621 65.6062 6.67187C65.6062 7.21752 65.4468 7.58956 65.1656 7.89546C64.7343 8.37497 64.0125 8.623 63.1968 8.623C62.925 8.623 62.6812 8.623 62.4656 8.56512V11.2769H61.9781V5.0349H61.9687ZM62.4562 8.17655C62.6625 8.23442 62.9156 8.25096 63.2062 8.25096C64.3593 8.25096 65.1 7.72184 65.1 6.70494C65.1 5.79551 64.4343 5.28293 63.3093 5.28293C62.9156 5.28293 62.625 5.316 62.4468 5.34907V8.17655H62.4562Z" fill="#343741"/>
<path d="M69.0188 11.2686L68.9531 10.6734H68.925C68.6906 11.0206 68.1938 11.3678 67.5 11.3678C66.5906 11.3678 66.1125 10.7808 66.1125 10.136C66.1125 9.08599 67.1156 8.49073 68.9156 8.50727V8.37499C68.9156 7.82933 68.8031 7.06045 67.7344 7.06045C67.3406 7.06045 66.9375 7.15966 66.6188 7.35808L66.4688 7.03565C66.8438 6.80416 67.3594 6.68842 67.8 6.68842C69.0375 6.68842 69.4031 7.47383 69.4031 8.35845V10.2269C69.4031 10.5741 69.4125 10.9544 69.4688 11.2769H69.0188V11.2686ZM68.9156 8.86277C68.0156 8.84623 66.6281 8.95371 66.6281 10.0698C66.6281 10.723 67.0781 10.9958 67.5469 10.9958C68.2688 10.9958 68.7094 10.5741 68.8594 10.1112C68.8969 10.012 68.9063 9.91274 68.9063 9.83833V8.86277H68.9156Z" fill="#343741"/>
<path d="M70.9312 8.02778C70.9312 7.6144 70.9125 7.15969 70.8844 6.77112H71.3437L71.3625 7.63094H71.3906C71.5875 7.11835 72.0844 6.68018 72.7312 6.68018C72.7875 6.68018 72.8531 6.68018 72.9 6.69671V7.12662C72.8344 7.11835 72.7781 7.11835 72.7031 7.11835C72.0187 7.11835 71.55 7.66401 71.4375 8.33368C71.4187 8.46596 71.4 8.6065 71.4 8.74705V11.2686H70.9125V8.02778H70.9312Z" fill="#343741"/>
<path d="M74.775 5.50623V6.77115H76.0781V7.12666H74.775V10.0947C74.775 10.6817 74.9813 10.9876 75.4594 10.9876C75.6844 10.9876 75.8438 10.9628 75.9563 10.9297L76.0125 11.2604C75.8625 11.3183 75.6656 11.3596 75.3844 11.3596C75.0375 11.3596 74.7563 11.2687 74.5688 11.062C74.3625 10.8388 74.2875 10.4915 74.2875 10.0037V7.14319H73.4906V6.78769H74.2875V5.67158L74.775 5.52276V5.50623Z" fill="#343741"/>
<path d="M77.1 7.83763C77.1 7.38291 77.0813 7.11835 77.0531 6.77112H77.5031L77.5313 7.50693H77.55C77.8031 7.04395 78.3656 6.68018 79.1156 6.68018C79.6219 6.68018 80.7094 6.9282 80.7094 8.44942V11.2686H80.2219V8.52383C80.2219 7.76322 79.9313 7.05221 78.9844 7.05221C78.3563 7.05221 77.8125 7.46559 77.6344 8.06085C77.5969 8.17659 77.5781 8.31714 77.5781 8.45769V11.2686H77.0906V7.83763H77.1Z" fill="#343741"/>
<path d="M82.3875 8.93717C82.3875 10.4832 83.2218 10.971 84.1312 10.971C84.75 10.971 85.0968 10.8552 85.35 10.7395L85.4718 11.0785C85.2656 11.1859 84.7875 11.3513 84.0562 11.3513C82.6968 11.3513 81.8906 10.4171 81.8906 9.08599C81.8906 7.6061 82.7531 6.67188 83.9531 6.67188C85.425 6.67188 85.725 7.96987 85.725 8.66434C85.725 8.78009 85.725 8.85449 85.7156 8.93717H82.3781H82.3875ZM85.2187 8.58993C85.2375 7.82106 84.8718 7.04391 83.8875 7.04391C82.9031 7.04391 82.4906 7.89546 82.4062 8.58993H85.2093H85.2187Z" fill="#343741"/>
<path d="M86.9156 8.02778C86.9156 7.6144 86.8969 7.15969 86.8688 6.77112H87.3281L87.3469 7.63094H87.375C87.5719 7.11835 88.0688 6.68018 88.7156 6.68018C88.7719 6.68018 88.8375 6.68018 88.8844 6.69671V7.12662C88.8188 7.11835 88.7625 7.11835 88.6875 7.11835C88.0031 7.11835 87.5344 7.66401 87.4219 8.33368C87.4031 8.46596 87.3844 8.6065 87.3844 8.74705V11.2686H86.8969V8.02778H86.9156Z" fill="#343741"/>
<path d="M89.6063 10.6982C89.85 10.8387 90.2156 10.9875 90.6375 10.9875C91.3594 10.9875 91.7344 10.6155 91.7344 10.1443C91.7344 9.67301 91.4531 9.40018 90.7781 9.11909C90.0281 8.81319 89.5594 8.43289 89.5594 7.8707C89.5594 7.2093 90.1406 6.68018 91.0313 6.68018C91.4719 6.68018 91.8375 6.80419 92.0719 6.953L91.8656 7.30851C91.6875 7.19276 91.3969 7.05221 90.9656 7.05221C90.3656 7.05221 90.0469 7.41598 90.0469 7.80456C90.0469 8.24273 90.3375 8.44942 90.9844 8.72225C91.7063 9.01988 92.2219 9.38365 92.2219 10.0699C92.2219 10.8801 91.5469 11.3596 90.6094 11.3596C90.1594 11.3596 89.7281 11.2438 89.4281 11.062L89.6063 10.6982V10.6982Z" fill="#343741"/>
<path d="M96.2062 5.531C96.2062 5.73769 96.0562 5.91131 95.8031 5.91131C95.5875 5.91131 95.4281 5.74596 95.4281 5.531C95.4281 5.31605 95.5968 5.1507 95.8218 5.1507C96.0656 5.1507 96.2156 5.31605 96.2156 5.531M95.5781 6.77939H96.0656V11.2769H95.5781V6.77113V6.77939Z" fill="#343741"/>
<path d="M97.65 7.83763C97.65 7.38291 97.6312 7.11835 97.6031 6.77112H98.0531L98.0812 7.50693H98.1C98.3531 7.04395 98.9156 6.68018 99.6656 6.68018C100.172 6.68018 101.259 6.9282 101.259 8.44942V11.2686H100.772V8.52383C100.772 7.76322 100.481 7.05221 99.5344 7.05221C98.9062 7.05221 98.3625 7.46559 98.1844 8.06085C98.1469 8.17659 98.1281 8.31714 98.1281 8.45769V11.2686H97.6406V7.83763H97.65Z" fill="#343741"/>
<path d="M109.238 11.0785C108.909 11.2273 108.328 11.3513 107.588 11.3513C106.041 11.3513 104.55 10.4336 104.55 8.16003C104.55 6.07662 105.909 4.86957 107.784 4.86957C108.544 4.86957 109.003 5.01838 109.2 5.10933L109.041 5.48136C108.731 5.34908 108.319 5.24987 107.766 5.24987C106.191 5.24987 105.056 6.23371 105.056 8.1435C105.056 10.0533 106.106 10.971 107.719 10.971C108.253 10.971 108.75 10.8718 109.088 10.7147L109.228 11.0702L109.238 11.0785Z" fill="#343741"/>
<path d="M112.734 11.2686L112.669 10.6734H112.641C112.406 11.0206 111.919 11.3678 111.216 11.3678C110.306 11.3678 109.828 10.7808 109.828 10.136C109.828 9.08599 110.831 8.49073 112.631 8.50727V8.37499C112.631 7.82933 112.519 7.06045 111.45 7.06045C111.056 7.06045 110.653 7.15966 110.334 7.35808L110.184 7.03565C110.559 6.80416 111.075 6.68842 111.516 6.68842C112.753 6.68842 113.119 7.47383 113.119 8.35845V10.2269C113.119 10.5741 113.128 10.9544 113.184 11.2769H112.734V11.2686ZM112.631 8.86277C111.731 8.84623 110.344 8.95371 110.344 10.0698C110.344 10.723 110.794 10.9958 111.263 10.9958C111.984 10.9958 112.425 10.5741 112.575 10.1112C112.613 10.012 112.622 9.91274 112.622 9.83833V8.86277H112.631Z" fill="#343741"/>
<path d="M114.656 7.83763C114.656 7.38291 114.637 7.11835 114.609 6.77112H115.059L115.088 7.50693H115.106C115.359 7.04395 115.922 6.68018 116.672 6.68018C117.178 6.68018 118.266 6.9282 118.266 8.44942V11.2686H117.778V8.52383C117.778 7.76322 117.487 7.05221 116.541 7.05221C115.912 7.05221 115.369 7.46559 115.191 8.06085C115.153 8.17659 115.134 8.31714 115.134 8.45769V11.2686H114.647V7.83763H114.656Z" fill="#343741"/>
<path d="M122.325 11.2686L122.259 10.6734H122.231C121.997 11.0206 121.5 11.3678 120.806 11.3678C119.906 11.3678 119.419 10.7808 119.419 10.136C119.419 9.08599 120.422 8.49073 122.222 8.50727V8.37499C122.222 7.82933 122.109 7.06045 121.041 7.06045C120.656 7.06045 120.244 7.15966 119.925 7.35808L119.775 7.03565C120.15 6.80416 120.666 6.68842 121.106 6.68842C122.344 6.68842 122.709 7.47383 122.709 8.35845V10.2269C122.709 10.5741 122.719 10.9544 122.775 11.2769H122.325V11.2686ZM122.222 8.86277C121.322 8.84623 119.934 8.95371 119.934 10.0698C119.934 10.723 120.384 10.9958 120.853 10.9958C121.575 10.9958 122.016 10.5741 122.166 10.1112C122.194 10.012 122.213 9.91274 122.213 9.83833V8.86277H122.222Z" fill="#343741"/>
<path d="M127.894 4.67117V10.26C127.894 10.5576 127.913 10.9958 127.941 11.2686H127.5L127.463 10.4915H127.434C127.209 10.9379 126.675 11.3596 125.841 11.3596C124.744 11.3596 123.872 10.508 123.872 9.07775C123.872 7.54826 124.819 6.67191 125.925 6.67191C126.638 6.67191 127.144 6.99434 127.378 7.39945H127.397V4.6629H127.884L127.894 4.67117ZM127.406 8.53209C127.406 8.41635 127.397 8.26753 127.369 8.15179C127.228 7.54826 126.694 7.05221 125.963 7.05221C124.95 7.05221 124.378 7.93683 124.378 9.05295C124.378 10.0616 124.866 11.0041 125.925 11.0041C126.525 11.0041 127.134 10.6651 127.359 9.8797C127.388 9.77222 127.406 9.65647 127.406 9.52419V8.53209V8.53209Z" fill="#343741"/>
<path d="M130.106 5.531C130.106 5.73769 129.956 5.91131 129.703 5.91131C129.488 5.91131 129.328 5.74596 129.328 5.531C129.328 5.31605 129.497 5.1507 129.722 5.1507C129.966 5.1507 130.116 5.31605 130.116 5.531M129.478 6.77939H129.966V11.2769H129.478V6.77113V6.77939Z" fill="#343741"/>
<path d="M134.044 11.2686L133.978 10.6734H133.95C133.716 11.0206 133.228 11.3678 132.525 11.3678C131.616 11.3678 131.138 10.7808 131.138 10.136C131.138 9.08599 132.141 8.49073 133.941 8.50727V8.37499C133.941 7.82933 133.828 7.06045 132.759 7.06045C132.366 7.06045 131.963 7.15966 131.644 7.35808L131.494 7.03565C131.869 6.80416 132.384 6.68842 132.825 6.68842C134.063 6.68842 134.428 7.47383 134.428 8.35845V10.2269C134.428 10.5741 134.438 10.9544 134.494 11.2769H134.044V11.2686ZM133.941 8.86277C133.041 8.84623 131.653 8.95371 131.653 10.0698C131.653 10.723 132.103 10.9958 132.572 10.9958C133.294 10.9958 133.734 10.5741 133.884 10.1112C133.922 10.012 133.931 9.91274 133.931 9.83833V8.86277H133.941Z" fill="#343741"/>
<path d="M135.956 7.83763C135.956 7.38291 135.937 7.11835 135.909 6.77112H136.359L136.387 7.50693H136.406C136.659 7.04395 137.222 6.68018 137.972 6.68018C138.478 6.68018 139.566 6.9282 139.566 8.44942V11.2686H139.078V8.52383C139.078 7.76322 138.787 7.05221 137.841 7.05221C137.212 7.05221 136.669 7.46559 136.491 8.06085C136.453 8.17659 136.434 8.31714 136.434 8.45769V11.2686H135.947V7.83763H135.956Z" fill="#343741"/>
<path d="M144.291 11.2686L142.134 4.96051H142.65L143.784 8.25924C144.084 9.11906 144.366 9.97888 144.544 10.723H144.572C144.759 9.97061 145.059 9.10253 145.378 8.25924L146.597 4.96051H147.112L144.75 11.2686H144.291V11.2686Z" fill="#343741"/>
<path d="M147.694 8.93717C147.694 10.4832 148.528 10.971 149.438 10.971C150.056 10.971 150.403 10.8552 150.656 10.7395L150.778 11.0785C150.572 11.1859 150.094 11.3513 149.363 11.3513C148.003 11.3513 147.197 10.4171 147.197 9.08599C147.197 7.6061 148.059 6.67188 149.259 6.67188C150.731 6.67188 151.031 7.96987 151.031 8.66434C151.031 8.78009 151.031 8.85449 151.022 8.93717H147.684H147.694ZM150.525 8.58993C150.544 7.82106 150.178 7.04391 149.194 7.04391C148.209 7.04391 147.797 7.89546 147.713 8.58993H150.525Z" fill="#343741"/>
<path d="M152.897 5.50623V6.77115H154.2V7.12666H152.897V10.0947C152.897 10.6817 153.103 10.9876 153.581 10.9876C153.806 10.9876 153.966 10.9628 154.078 10.9297L154.134 11.2604C153.984 11.3183 153.787 11.3596 153.506 11.3596C153.159 11.3596 152.878 11.2687 152.691 11.062C152.484 10.8388 152.409 10.4915 152.409 10.0037V7.14319H151.612V6.78769H152.409V5.67158L152.897 5.52276V5.50623Z" fill="#343741"/>
<path d="M155.269 8.93717C155.269 10.4832 156.103 10.971 157.012 10.971C157.631 10.971 157.978 10.8552 158.231 10.7395L158.353 11.0785C158.147 11.1859 157.669 11.3513 156.937 11.3513C155.578 11.3513 154.772 10.4171 154.772 9.08599C154.772 7.6061 155.625 6.67188 156.834 6.67188C158.306 6.67188 158.606 7.96987 158.606 8.66434C158.606 8.78009 158.606 8.85449 158.597 8.93717H155.259H155.269ZM158.1 8.58993C158.119 7.82106 157.753 7.04391 156.769 7.04391C155.784 7.04391 155.372 7.89546 155.287 8.58993H158.091H158.1Z" fill="#343741"/>
<path d="M159.797 8.02778C159.797 7.6144 159.778 7.15969 159.75 6.77112H160.209L160.228 7.63094H160.256C160.453 7.11835 160.95 6.68018 161.597 6.68018C161.653 6.68018 161.719 6.68018 161.775 6.69671V7.12662C161.709 7.11835 161.653 7.11835 161.578 7.11835C160.894 7.11835 160.425 7.66401 160.313 8.33368C160.294 8.46596 160.284 8.6065 160.284 8.74705V11.2686H159.797V8.02778Z" fill="#343741"/>
<path d="M165.15 11.2686L165.084 10.6734H165.056C164.822 11.0206 164.325 11.3678 163.631 11.3678C162.722 11.3678 162.244 10.7808 162.244 10.136C162.244 9.08599 163.247 8.49073 165.047 8.50727V8.37499C165.047 7.82933 164.934 7.06045 163.866 7.06045C163.472 7.06045 163.069 7.15966 162.75 7.35808L162.6 7.03565C162.975 6.80416 163.491 6.68842 163.931 6.68842C165.169 6.68842 165.534 7.47383 165.534 8.35845V10.2269C165.534 10.5741 165.544 10.9544 165.6 11.2769H165.15V11.2686ZM165.047 8.86277C164.147 8.84623 162.759 8.95371 162.759 10.0698C162.759 10.723 163.209 10.9958 163.678 10.9958C164.4 10.9958 164.841 10.5741 164.991 10.1112C165.028 10.012 165.037 9.91274 165.037 9.83833V8.86277H165.047Z" fill="#343741"/>
<path d="M167.072 7.83763C167.072 7.38291 167.053 7.11835 167.025 6.77112H167.475L167.503 7.50693H167.522C167.775 7.04395 168.338 6.68018 169.088 6.68018C169.594 6.68018 170.681 6.9282 170.681 8.44942V11.2686H170.194V8.52383C170.194 7.76322 169.903 7.05221 168.956 7.05221C168.328 7.05221 167.784 7.46559 167.606 8.06085C167.578 8.17659 167.55 8.31714 167.55 8.45769V11.2686H167.063V7.83763H167.072Z" fill="#343741"/>
<path d="M172.041 10.6982C172.284 10.8387 172.65 10.9875 173.072 10.9875C173.794 10.9875 174.169 10.6155 174.169 10.1443C174.169 9.67301 173.888 9.40018 173.213 9.11909C172.463 8.81319 171.994 8.43289 171.994 7.8707C171.994 7.2093 172.575 6.68018 173.466 6.68018C173.906 6.68018 174.272 6.80419 174.506 6.953L174.3 7.30851C174.122 7.19276 173.831 7.05221 173.4 7.05221C172.8 7.05221 172.481 7.41598 172.481 7.80456C172.481 8.24273 172.781 8.44942 173.419 8.72225C174.141 9.01988 174.656 9.38365 174.656 10.0699C174.656 10.8801 173.981 11.3596 173.044 11.3596C172.594 11.3596 172.163 11.2438 171.863 11.062L172.041 10.6982V10.6982Z" fill="#343741"/>
<path d="M61.9687 14.4185C62.3625 14.3276 62.8969 14.2863 63.3375 14.2863C64.1906 14.2863 64.7344 14.4599 65.1094 14.7906C65.4187 15.0634 65.5969 15.485 65.5969 15.9315C65.5969 16.7913 65.0531 17.3204 64.2656 17.5767V17.5933C64.8375 17.7421 65.175 18.2216 65.3437 18.9905C65.5687 19.966 65.7 20.4125 65.8312 20.6357H65.325C65.2125 20.4455 65.0719 19.8834 64.8844 19.0814C64.6781 18.1637 64.2562 17.7669 63.3469 17.7421H62.4469V20.6357H61.9594V14.4103L61.9687 14.4185ZM62.4562 17.4031H63.375C64.4156 17.4031 65.1094 16.8574 65.1094 16.0142C65.1094 15.0799 64.425 14.6583 63.3281 14.6583C62.9344 14.6583 62.625 14.6914 62.4656 14.7327V17.4114L62.4562 17.4031Z" fill="#343741"/>
<path d="M67.0594 18.3125C67.0594 19.8586 67.8937 20.3463 68.8031 20.3463C69.4219 20.3463 69.7688 20.2306 70.0219 20.1149L70.1437 20.4538C69.9375 20.5613 69.4594 20.7266 68.7281 20.7266C67.3687 20.7266 66.5625 19.7924 66.5625 18.4614C66.5625 16.9815 67.4156 16.0472 68.625 16.0472C70.0969 16.0472 70.3969 17.3452 70.3969 18.0397C70.3969 18.1555 70.3969 18.2299 70.3875 18.3125H67.05H67.0594ZM69.8906 17.9653C69.9094 17.1964 69.5437 16.4193 68.5594 16.4193C67.575 16.4193 67.1625 17.2708 67.0781 17.9653H69.8813H69.8906Z" fill="#343741"/>
<path d="M71.5969 14.0383H72.0844V16.8492H72.1031C72.2344 16.626 72.4594 16.411 72.7125 16.2788C72.975 16.1382 73.2656 16.0473 73.6312 16.0473C74.1094 16.0473 75.2062 16.287 75.2062 17.7917V20.6357H74.7187V17.8661C74.7187 17.1138 74.4187 16.4193 73.4906 16.4193C72.8437 16.4193 72.3187 16.8327 72.1312 17.4031C72.0844 17.5272 72.075 17.6512 72.075 17.8165V20.6357H71.5875V14.0383H71.5969Z" fill="#343741"/>
<path d="M79.2656 20.6357L79.2 20.0404H79.1719C78.9375 20.3877 78.4406 20.7349 77.7469 20.7349C76.8375 20.7349 76.3594 20.1479 76.3594 19.503C76.3594 18.4531 77.3625 17.8578 79.1625 17.8743V17.7421C79.1625 17.1964 79.05 16.4275 77.9813 16.4275C77.5875 16.4275 77.1844 16.5267 76.8656 16.7251L76.7156 16.4027C77.0906 16.1712 77.6063 16.0555 78.0469 16.0555C79.2844 16.0555 79.65 16.8409 79.65 17.7255V19.594C79.65 19.9412 79.6594 20.3215 79.7156 20.6439H79.2656V20.6357ZM79.1625 18.2298C78.2625 18.2133 76.875 18.3208 76.875 19.4369C76.875 20.09 77.325 20.3628 77.7938 20.3628C78.5156 20.3628 78.9563 19.9412 79.1063 19.4782C79.1344 19.379 79.1531 19.2798 79.1531 19.2054V18.2298H79.1625Z" fill="#343741"/>
<path d="M81.1406 20.6357C81.1594 20.3629 81.1875 19.9247 81.1875 19.6271V14.0383H81.675V16.8988H81.6937C82.0125 16.3366 82.575 16.0473 83.325 16.0473C84.4312 16.0473 85.2656 16.9154 85.2656 18.3539C85.2656 19.9743 84.2156 20.7267 83.2312 20.7267C82.4719 20.7267 81.975 20.4125 81.6469 19.8751H81.6187L81.5812 20.6275H81.1406V20.6357ZM81.675 18.9492C81.675 19.0484 81.6844 19.1641 81.7125 19.2633C81.9375 20.0074 82.5375 20.3712 83.175 20.3712C84.225 20.3712 84.7687 19.4948 84.7687 18.3704C84.7687 17.3535 84.2437 16.4193 83.2031 16.4193C82.5375 16.4193 81.9187 16.8988 81.7312 17.5768C81.7031 17.6925 81.6844 17.8082 81.6844 17.9488V18.9574L81.675 18.9492Z" fill="#343741"/>
<path d="M87.1031 14.898C87.1031 15.113 86.9625 15.2783 86.7 15.2783C86.4844 15.2783 86.325 15.113 86.325 14.898C86.325 14.6831 86.4938 14.526 86.7188 14.526C86.9625 14.526 87.1125 14.6914 87.1125 14.898M86.475 16.1464H86.9625V20.644H86.475V16.1464Z" fill="#343741"/>
<path d="M89.025 14.0383H88.5375V20.6357H89.025V14.0383Z" fill="#343741"/>
<path d="M91.2937 14.898C91.2937 15.113 91.1437 15.2783 90.8906 15.2783C90.675 15.2783 90.5156 15.113 90.5156 14.898C90.5156 14.6831 90.6844 14.526 90.9094 14.526C91.1531 14.526 91.3031 14.6914 91.3031 14.898M90.6656 16.1464H91.1531V20.644H90.6656V16.1464Z" fill="#343741"/>
<path d="M93.3938 14.8732V16.1382H94.6969V16.4937H93.3938V19.4534C93.3938 20.0404 93.6 20.338 94.0781 20.338C94.3031 20.338 94.4625 20.3132 94.575 20.2802L94.6313 20.6109C94.4813 20.6687 94.2844 20.7101 94.0031 20.7101C93.6562 20.7101 93.375 20.6191 93.1875 20.4125C92.9813 20.1892 92.9062 19.842 92.9062 19.3542V16.4937H92.1094V16.1382H92.9062V15.022L93.3938 14.8732V14.8732Z" fill="#343741"/>
<path d="M98.2219 20.6357L98.1562 20.0404H98.1281C97.8937 20.3877 97.3969 20.7349 96.7031 20.7349C95.7937 20.7349 95.3156 20.1479 95.3156 19.503C95.3156 18.4531 96.3187 17.8578 98.1187 17.8743V17.7421C98.1187 17.1964 98.0062 16.4275 96.9375 16.4275C96.5531 16.4275 96.1406 16.5267 95.8219 16.7251L95.6719 16.4027C96.0469 16.1712 96.5625 16.0555 97.0031 16.0555C98.2406 16.0555 98.6062 16.8409 98.6062 17.7255V19.594C98.6062 19.9412 98.6156 20.3215 98.6719 20.6439H98.2219V20.6357ZM98.1187 18.2298C97.2187 18.2133 95.8312 18.3208 95.8312 19.4369C95.8312 20.09 96.2812 20.3628 96.75 20.3628C97.4719 20.3628 97.9125 19.9412 98.0625 19.4782C98.1 19.379 98.1094 19.2798 98.1094 19.2054V18.2298H98.1187Z" fill="#343741"/>
<path d="M100.772 14.8732V16.1382H102.075V16.4937H100.772V19.4534C100.772 20.0404 100.978 20.338 101.456 20.338C101.681 20.338 101.841 20.3132 101.953 20.2802L102.009 20.6109C101.859 20.6687 101.662 20.7101 101.381 20.7101C101.034 20.7101 100.753 20.6191 100.566 20.4125C100.359 20.1892 100.284 19.842 100.284 19.3542V16.4937H99.4875V16.1382H100.284V15.022L100.772 14.8732V14.8732Z" fill="#343741"/>
<path d="M103.734 14.898C103.734 15.113 103.584 15.2783 103.331 15.2783C103.116 15.2783 102.956 15.113 102.956 14.898C102.956 14.6831 103.125 14.526 103.35 14.526C103.594 14.526 103.744 14.6914 103.744 14.898M103.106 16.1464H103.594V20.644H103.106V16.1464Z" fill="#343741"/>
<path d="M109.041 18.3621C109.041 20.0321 107.906 20.7349 106.875 20.7349C105.731 20.7349 104.794 19.8999 104.794 18.42C104.794 16.8492 105.825 16.0555 106.95 16.0555C108.15 16.0555 109.041 16.907 109.041 18.3704M105.291 18.4117C105.291 19.4204 105.909 20.3794 106.903 20.3794C107.897 20.3794 108.534 19.4121 108.534 18.3869C108.534 17.5932 108.122 16.4275 106.913 16.4275C105.703 16.4275 105.281 17.5188 105.281 18.4117" fill="#343741"/>
<path d="M110.25 17.2047C110.25 16.75 110.231 16.4854 110.203 16.1382H110.653L110.681 16.874H110.7C110.953 16.411 111.516 16.0472 112.266 16.0472C112.772 16.0472 113.859 16.2953 113.859 17.8165V20.6357H113.372V17.8909C113.372 17.1303 113.081 16.4193 112.134 16.4193C111.506 16.4193 110.962 16.8327 110.784 17.4279C110.747 17.5437 110.728 17.6842 110.728 17.8248V20.6357H110.241V17.2047H110.25Z" fill="#343741"/>
<path d="M117.347 19.9826C117.694 20.1893 118.2 20.3546 118.725 20.3546C119.719 20.3546 120.328 19.8255 120.328 19.0484C120.328 18.3539 119.906 17.9322 119.025 17.5685C118.125 17.246 117.328 16.7169 117.328 15.824C117.328 14.9311 118.162 14.2449 119.287 14.2449C119.887 14.2449 120.347 14.3937 120.562 14.526L120.375 14.8898C120.187 14.7741 119.775 14.617 119.241 14.617C118.2 14.617 117.816 15.2453 117.816 15.7414C117.816 16.4606 118.275 16.7996 119.184 17.1716C120.253 17.6346 120.816 18.1307 120.816 19.007C120.816 19.9578 120.056 20.7267 118.687 20.7267C118.125 20.7267 117.478 20.5613 117.159 20.3463L117.337 19.9826H117.347Z" fill="#343741"/>
<path d="M122.25 18.3125C122.25 19.8586 123.084 20.3463 123.994 20.3463C124.612 20.3463 124.959 20.2306 125.212 20.1149L125.334 20.4538C125.128 20.5613 124.65 20.7266 123.919 20.7266C122.559 20.7266 121.753 19.7924 121.753 18.4614C121.753 16.9815 122.616 16.0472 123.816 16.0472C125.287 16.0472 125.587 17.3452 125.587 18.0397C125.587 18.1555 125.587 18.2299 125.578 18.3125H122.241H122.25ZM125.081 17.9653C125.1 17.1964 124.734 16.4193 123.75 16.4193C122.766 16.4193 122.353 17.2708 122.269 17.9653H125.072H125.081Z" fill="#343741"/>
<path d="M126.788 17.4031C126.788 16.9897 126.769 16.535 126.741 16.1464H127.2L127.219 17.0062H127.247C127.444 16.4937 127.941 16.0555 128.588 16.0555C128.644 16.0555 128.709 16.0555 128.756 16.072V16.5019C128.691 16.4937 128.634 16.4937 128.559 16.4937C127.875 16.4937 127.406 17.0393 127.294 17.709C127.275 17.8413 127.256 17.9818 127.256 18.1224V20.6439H126.769V17.4031H126.788Z" fill="#343741"/>
<path d="M129.881 16.1465L130.959 18.9574C131.119 19.3377 131.259 19.7263 131.381 20.0983H131.409C131.522 19.7428 131.681 19.346 131.841 18.9574L132.919 16.1465H133.434L131.587 20.644H131.156L129.366 16.1465H129.881V16.1465Z" fill="#343741"/>
<path d="M134.991 14.898C134.991 15.113 134.85 15.2783 134.588 15.2783C134.363 15.2783 134.213 15.113 134.213 14.898C134.213 14.6831 134.381 14.526 134.606 14.526C134.85 14.526 135 14.6914 135 14.898M134.363 16.1464H134.85V20.644H134.363V16.1464Z" fill="#343741"/>
<path d="M139.566 20.4621C139.35 20.5613 138.891 20.7266 138.272 20.7266C136.941 20.7266 136.05 19.8255 136.05 18.4365C136.05 17.0476 137.016 16.0555 138.431 16.0555C138.947 16.0555 139.387 16.1878 139.575 16.2952L139.406 16.659C139.2 16.5515 138.862 16.4275 138.375 16.4275C137.147 16.4275 136.547 17.3865 136.547 18.4117C136.547 19.594 137.287 20.3463 138.347 20.3463C138.844 20.3463 139.181 20.2223 139.434 20.1231L139.566 20.4621V20.4621Z" fill="#343741"/>
<path d="M140.737 18.3125C140.737 19.8586 141.572 20.3463 142.481 20.3463C143.1 20.3463 143.447 20.2306 143.7 20.1149L143.822 20.4538C143.616 20.5613 143.137 20.7266 142.406 20.7266C141.047 20.7266 140.241 19.7924 140.241 18.4614C140.241 16.9815 141.103 16.0472 142.303 16.0472C143.775 16.0472 144.075 17.3452 144.075 18.0397C144.075 18.1555 144.075 18.2299 144.066 18.3125H140.728H140.737ZM143.569 17.9653C143.587 17.1964 143.222 16.4193 142.237 16.4193C141.253 16.4193 140.841 17.2708 140.756 17.9653H143.559H143.569Z" fill="#343741"/>
<path d="M145.069 20.0652C145.313 20.2058 145.678 20.3546 146.1 20.3546C146.822 20.3546 147.197 19.9825 147.197 19.5113C147.197 19.04 146.916 18.7672 146.241 18.4861C145.491 18.1802 145.022 17.7999 145.022 17.246C145.022 16.5846 145.603 16.0555 146.494 16.0555C146.934 16.0555 147.3 16.1795 147.534 16.3283L147.328 16.6838C147.15 16.5681 146.859 16.4275 146.428 16.4275C145.828 16.4275 145.509 16.7913 145.509 17.1799C145.509 17.618 145.809 17.8165 146.447 18.0976C147.169 18.3952 147.684 18.759 147.684 19.4452C147.684 20.2554 147.009 20.7349 146.072 20.7349C145.622 20.7349 145.191 20.6191 144.891 20.4373L145.069 20.0735V20.0652Z" fill="#343741"/>
<path d="M61.5563 28.4155C61.9313 28.3493 62.3813 28.2914 62.9344 28.2914C63.7031 28.2914 64.2938 28.4733 64.6688 28.804C64.9969 29.0934 65.1938 29.5068 65.1938 30.0524C65.1938 30.5981 65.0344 30.9701 64.7438 31.276C64.3125 31.7555 63.5906 32.0035 62.775 32.0035C62.5031 32.0035 62.2594 32.0035 62.0438 31.9457V34.6574H61.5563V28.4237V28.4155ZM62.0438 31.5571C62.25 31.6067 62.5031 31.6315 62.7938 31.6315C63.9469 31.6315 64.6875 31.1024 64.6875 30.0855C64.6875 29.1761 64.0219 28.6635 62.8969 28.6635C62.5031 28.6635 62.2125 28.6965 62.0344 28.7296V31.5571H62.0438Z" fill="#343741"/>
<path d="M68.5969 34.6491L68.5313 34.0538H68.5031C68.2688 34.4011 67.7719 34.7483 67.0781 34.7483C66.1688 34.7483 65.6906 34.1613 65.6906 33.5165C65.6906 32.4665 66.6938 31.8712 68.4938 31.8878V31.7555C68.4938 31.2098 68.3813 30.4409 67.3125 30.4409C66.9281 30.4409 66.5156 30.5402 66.1969 30.7386L66.0469 30.4161C66.4219 30.1847 66.9375 30.0689 67.3781 30.0689C68.6156 30.0689 68.9813 30.8543 68.9813 31.7389V33.6074C68.9813 33.9546 68.9906 34.3349 69.0469 34.6574H68.5969V34.6491ZM68.4938 32.2433C67.5938 32.2267 66.2063 32.3342 66.2063 33.4503C66.2063 34.1034 66.6563 34.3763 67.125 34.3763C67.8469 34.3763 68.2875 33.9629 68.4375 33.4917C68.475 33.3924 68.4844 33.2932 68.4844 33.2188V32.2433H68.4938Z" fill="#343741"/>
<path d="M70.5094 31.4165C70.5094 31.0031 70.4906 30.5484 70.4625 30.1599H70.9219L70.9406 31.0197H70.9688C71.1656 30.5071 71.6625 30.0689 72.3094 30.0689C72.3656 30.0689 72.4313 30.0689 72.4875 30.0854V30.5154C72.4219 30.5071 72.3656 30.5071 72.2906 30.5071C71.6063 30.5071 71.1375 31.0527 71.025 31.7224C71.0063 31.8547 70.9969 31.9952 70.9969 32.1358V34.6574H70.5094V31.4165V31.4165Z" fill="#343741"/>
<path d="M74.3531 28.8867V30.1516H75.6563V30.5071H74.3531V33.4668C74.3531 34.0538 74.5688 34.3597 75.0375 34.3597C75.2625 34.3597 75.4219 34.3349 75.5344 34.3019L75.5906 34.6326C75.4406 34.6904 75.2438 34.7318 74.9625 34.7318C74.6156 34.7318 74.3344 34.6408 74.1469 34.4341C73.9406 34.2109 73.8656 33.8637 73.8656 33.3759V30.5154H73.0688V30.1599H73.8656V29.0437L74.3531 28.8949V28.8867Z" fill="#343741"/>
<path d="M76.725 32.3259C76.725 33.8719 77.5594 34.3597 78.4687 34.3597C79.0875 34.3597 79.4344 34.244 79.6875 34.1282L79.8094 34.4672C79.6031 34.5829 79.125 34.74 78.3937 34.74C77.0344 34.74 76.2281 33.8058 76.2281 32.4747C76.2281 30.9948 77.0812 30.0606 78.2906 30.0606C79.7625 30.0606 80.0625 31.3586 80.0625 32.0531C80.0625 32.1688 80.0625 32.2432 80.0531 32.3259H76.7156H76.725ZM79.5562 31.9787C79.575 31.2098 79.2094 30.4326 78.225 30.4326C77.2406 30.4326 76.8281 31.2842 76.7437 31.9787H79.5469H79.5562Z" fill="#343741"/>
<path d="M81.2625 31.2181C81.2625 30.7633 81.2438 30.4988 81.2156 30.1516H81.6656L81.6938 30.8874H81.7125C81.9656 30.4244 82.5281 30.0606 83.2781 30.0606C83.7844 30.0606 84.8719 30.3086 84.8719 31.8299V34.6491H84.3844V31.9043C84.3844 31.1436 84.0938 30.4326 83.1469 30.4326C82.5188 30.4326 81.975 30.846 81.7969 31.4413C81.7594 31.557 81.7406 31.6976 81.7406 31.8381V34.6491H81.2531V31.2181H81.2625Z" fill="#343741"/>
<path d="M88.9313 34.6491L88.8656 34.0538H88.8375C88.6031 34.4011 88.1063 34.7483 87.4125 34.7483C86.5031 34.7483 86.025 34.1613 86.025 33.5165C86.025 32.4665 87.0281 31.8712 88.8281 31.8878V31.7555C88.8281 31.2098 88.7156 30.4409 87.6469 30.4409C87.2625 30.4409 86.85 30.5402 86.5313 30.7386L86.3813 30.4161C86.7563 30.1847 87.2719 30.0689 87.7125 30.0689C88.95 30.0689 89.3156 30.8543 89.3156 31.7389V33.6074C89.3156 33.9546 89.325 34.3349 89.3813 34.6574H88.9313V34.6491ZM88.8281 32.2433C87.9281 32.2267 86.5406 32.3342 86.5406 33.4503C86.5406 34.1034 86.9906 34.3763 87.4594 34.3763C88.1813 34.3763 88.6219 33.9629 88.7719 33.4917C88.8094 33.3924 88.8188 33.2932 88.8188 33.2188V32.2433H88.8281Z" fill="#343741"/>
<path d="M91.4906 28.9115C91.4906 29.1182 91.35 29.2835 91.0875 29.2835C90.8719 29.2835 90.7125 29.1182 90.7125 28.9115C90.7125 28.7048 90.8813 28.5312 91.1063 28.5312C91.35 28.5312 91.5 28.6965 91.5 28.9115M90.8625 30.1599H91.35V34.6574H90.8625V30.1599Z" fill="#343741"/>
<path d="M92.925 31.4165C92.925 31.0031 92.9063 30.5484 92.8781 30.1599H93.3375L93.3563 31.0197H93.3844C93.5813 30.5071 94.0781 30.0689 94.725 30.0689C94.7813 30.0689 94.8469 30.0689 94.9031 30.0854V30.5154C94.8375 30.5071 94.7813 30.5071 94.7063 30.5071C94.0219 30.5071 93.5531 31.0527 93.4406 31.7224C93.4219 31.8547 93.4031 31.9952 93.4031 32.1358V34.6574H92.9156V31.4165H92.925Z" fill="#343741"/>
<path d="M95.7844 32.3259C95.7844 33.8719 96.6188 34.3597 97.5281 34.3597C98.1469 34.3597 98.4938 34.244 98.7469 34.1282L98.8688 34.4672C98.6625 34.5829 98.1844 34.74 97.4531 34.74C96.0938 34.74 95.2875 33.8058 95.2875 32.4747C95.2875 30.9948 96.1406 30.0606 97.35 30.0606C98.8219 30.0606 99.1219 31.3586 99.1219 32.0531C99.1219 32.1688 99.1219 32.2432 99.1125 32.3259H95.775H95.7844ZM98.6156 31.9787C98.6344 31.2098 98.2688 30.4326 97.2844 30.4326C96.3 30.4326 95.8875 31.2842 95.8031 31.9787H98.6063H98.6156Z" fill="#343741"/>
<path d="M100.116 34.0786C100.359 34.2192 100.725 34.368 101.147 34.368C101.869 34.368 102.234 33.9959 102.234 33.5247C102.234 33.0534 101.953 32.7806 101.278 32.4995C100.528 32.1936 100.059 31.8133 100.059 31.2511C100.059 30.5897 100.641 30.0606 101.531 30.0606C101.972 30.0606 102.337 30.1846 102.572 30.3334L102.366 30.6889C102.187 30.5732 101.897 30.4326 101.466 30.4326C100.866 30.4326 100.547 30.7964 100.547 31.185C100.547 31.6232 100.837 31.8216 101.484 32.1027C102.206 32.392 102.722 32.7641 102.722 33.4503C102.722 34.2522 102.047 34.74 101.109 34.74C100.669 34.74 100.228 34.6243 99.9281 34.4424L100.106 34.0786H100.116Z" fill="#343741"/>
<path d="M109.725 28.0516V33.6404C109.725 33.9381 109.744 34.3762 109.772 34.6491H109.331L109.294 33.8719H109.266C109.041 34.3184 108.506 34.74 107.672 34.74C106.575 34.74 105.703 33.8885 105.703 32.4582C105.703 30.9287 106.65 30.0523 107.756 30.0523C108.469 30.0523 108.975 30.3748 109.209 30.7799H109.228V28.0433H109.716L109.725 28.0516ZM109.237 31.9125C109.237 31.7968 109.228 31.648 109.2 31.5322C109.059 30.9287 108.516 30.4326 107.794 30.4326C106.781 30.4326 106.209 31.3173 106.209 32.4334C106.209 33.442 106.697 34.3845 107.756 34.3845C108.356 34.3845 108.966 34.0455 109.191 33.2601C109.219 33.1526 109.237 33.0369 109.237 32.9046V31.9125Z" fill="#343741"/>
<path d="M111.412 32.3259C111.412 33.8719 112.247 34.3597 113.156 34.3597C113.775 34.3597 114.122 34.244 114.375 34.1282L114.497 34.4672C114.291 34.5829 113.812 34.74 113.081 34.74C111.722 34.74 110.916 33.8058 110.916 32.4747C110.916 30.9948 111.769 30.0606 112.978 30.0606C114.45 30.0606 114.75 31.3586 114.75 32.0531C114.75 32.1688 114.75 32.2432 114.741 32.3259H111.403H111.412ZM114.244 31.9787C114.262 31.2098 113.897 30.4326 112.912 30.4326C111.928 30.4326 111.516 31.2842 111.431 31.9787H114.234H114.244Z" fill="#343741"/>
<path d="M115.744 34.0786C115.988 34.2192 116.353 34.368 116.775 34.368C117.497 34.368 117.872 33.9959 117.872 33.5247C117.872 33.0534 117.591 32.7806 116.916 32.4995C116.166 32.1936 115.697 31.8133 115.697 31.2511C115.697 30.5897 116.278 30.0606 117.169 30.0606C117.609 30.0606 117.975 30.1846 118.209 30.3334L118.003 30.6889C117.825 30.5732 117.534 30.4326 117.103 30.4326C116.503 30.4326 116.184 30.7964 116.184 31.185C116.184 31.6232 116.484 31.8216 117.122 32.1027C117.844 32.392 118.359 32.7641 118.359 33.4503C118.359 34.2522 117.684 34.74 116.747 34.74C116.306 34.74 115.866 34.6243 115.566 34.4424L115.744 34.0786V34.0786Z" fill="#343741"/>
<path d="M121.5 34.0786C121.744 34.2192 122.109 34.368 122.531 34.368C123.253 34.368 123.628 33.9959 123.628 33.5247C123.628 33.0534 123.347 32.7806 122.672 32.4995C121.922 32.1936 121.453 31.8133 121.453 31.2511C121.453 30.5897 122.034 30.0606 122.925 30.0606C123.366 30.0606 123.731 30.1846 123.966 30.3334L123.759 30.6889C123.581 30.5732 123.291 30.4326 122.859 30.4326C122.259 30.4326 121.941 30.7964 121.941 31.185C121.941 31.6232 122.241 31.8216 122.878 32.1027C123.6 32.392 124.116 32.7641 124.116 33.4503C124.116 34.2522 123.441 34.74 122.503 34.74C122.053 34.74 121.622 34.6243 121.322 34.4424L121.5 34.0786V34.0786Z" fill="#343741"/>
<path d="M125.456 32.3259C125.456 33.8719 126.291 34.3597 127.2 34.3597C127.819 34.3597 128.166 34.244 128.419 34.1282L128.541 34.4672C128.334 34.5829 127.856 34.74 127.125 34.74C125.766 34.74 124.959 33.8058 124.959 32.4747C124.959 30.9948 125.812 30.0606 127.022 30.0606C128.494 30.0606 128.794 31.3586 128.794 32.0531C128.794 32.1688 128.794 32.2432 128.784 32.3259H125.447H125.456ZM128.287 31.9787C128.306 31.2098 127.941 30.4326 126.956 30.4326C125.972 30.4326 125.559 31.2842 125.475 31.9787H128.278H128.287Z" fill="#343741"/>
<path d="M129.994 31.4165C129.994 31.0031 129.975 30.5484 129.947 30.1599H130.406L130.425 31.0197H130.453C130.65 30.5071 131.147 30.0689 131.794 30.0689C131.85 30.0689 131.916 30.0689 131.972 30.0854V30.5154C131.906 30.5071 131.85 30.5071 131.775 30.5071C131.091 30.5071 130.622 31.0527 130.509 31.7224C130.491 31.8547 130.472 31.9952 130.472 32.1358V34.6574H129.984V31.4165H129.994Z" fill="#343741"/>
<path d="M133.088 30.1599L134.166 32.9709C134.325 33.3512 134.466 33.7397 134.588 34.1118H134.616C134.728 33.7563 134.888 33.3594 135.047 32.9709L136.134 30.1599H136.641L134.794 34.6574H134.363L132.572 30.1599H133.088Z" fill="#343741"/>
<path d="M138.197 28.9115C138.197 29.1182 138.056 29.2835 137.794 29.2835C137.569 29.2835 137.419 29.1182 137.419 28.9115C137.419 28.7048 137.588 28.5312 137.813 28.5312C138.056 28.5312 138.206 28.6965 138.206 28.9115M137.569 30.1599H138.056V34.6574H137.569V30.1599Z" fill="#343741"/>
<path d="M142.772 34.4755C142.556 34.5747 142.097 34.74 141.478 34.74C140.147 34.74 139.256 33.8389 139.256 32.4499C139.256 31.061 140.222 30.0689 141.637 30.0689C142.153 30.0689 142.594 30.2012 142.781 30.3087L142.612 30.6724C142.406 30.565 142.069 30.4409 141.581 30.4409C140.353 30.4409 139.753 31.4 139.753 32.4251C139.753 33.6074 140.494 34.3597 141.553 34.3597C142.05 34.3597 142.387 34.2357 142.641 34.1365L142.772 34.4755V34.4755Z" fill="#343741"/>
<path d="M143.944 32.3259C143.944 33.8719 144.778 34.3597 145.688 34.3597C146.306 34.3597 146.653 34.244 146.906 34.1282L147.028 34.4672C146.822 34.5829 146.344 34.74 145.613 34.74C144.253 34.74 143.447 33.8058 143.447 32.4747C143.447 30.9948 144.3 30.0606 145.509 30.0606C146.981 30.0606 147.281 31.3586 147.281 32.0531C147.281 32.1688 147.281 32.2432 147.272 32.3259H143.934H143.944ZM146.775 31.9787C146.794 31.2098 146.428 30.4326 145.444 30.4326C144.459 30.4326 144.047 31.2842 143.963 31.9787H146.766H146.775Z" fill="#343741"/>
<path d="M148.275 34.0786C148.519 34.2192 148.884 34.368 149.306 34.368C150.028 34.368 150.403 33.9959 150.403 33.5247C150.403 33.0534 150.122 32.7806 149.447 32.4995C148.697 32.1936 148.228 31.8133 148.228 31.2511C148.228 30.5897 148.809 30.0606 149.7 30.0606C150.141 30.0606 150.506 30.1846 150.741 30.3334L150.534 30.6889C150.356 30.5732 150.066 30.4326 149.634 30.4326C149.034 30.4326 148.716 30.7964 148.716 31.185C148.716 31.6232 149.006 31.8216 149.653 32.1027C150.375 32.392 150.891 32.7641 150.891 33.4503C150.891 34.2522 150.216 34.74 149.278 34.74C148.837 34.74 148.397 34.6243 148.097 34.4424L148.275 34.0786V34.0786Z" fill="#343741"/>
<path d="M157.884 28.0516V33.6404C157.884 33.9381 157.903 34.3762 157.931 34.6491H157.491L157.453 33.8719H157.425C157.2 34.3184 156.666 34.74 155.831 34.74C154.734 34.74 153.862 33.8885 153.862 32.4582C153.862 30.9287 154.809 30.0523 155.916 30.0523C156.628 30.0523 157.134 30.3748 157.369 30.7799H157.387V28.0433H157.875L157.884 28.0516ZM157.397 31.9125C157.397 31.7968 157.387 31.648 157.359 31.5322C157.219 30.9287 156.675 30.4326 155.953 30.4326C154.941 30.4326 154.369 31.3173 154.369 32.4334C154.369 33.442 154.856 34.3845 155.916 34.3845C156.516 34.3845 157.125 34.0455 157.35 33.2601C157.387 33.1526 157.397 33.0369 157.397 32.9046V31.9125V31.9125Z" fill="#343741"/>
<path d="M159.581 32.3259C159.581 33.8719 160.416 34.3597 161.325 34.3597C161.944 34.3597 162.291 34.244 162.544 34.1282L162.666 34.4672C162.459 34.5829 161.981 34.74 161.25 34.74C159.891 34.74 159.084 33.8058 159.084 32.4747C159.084 30.9948 159.938 30.0606 161.147 30.0606C162.619 30.0606 162.919 31.3586 162.919 32.0531C162.919 32.1688 162.919 32.2432 162.909 32.3259H159.572H159.581ZM162.413 31.9787C162.431 31.2098 162.066 30.4326 161.081 30.4326C160.097 30.4326 159.684 31.2842 159.6 31.9787H162.403H162.413Z" fill="#343741"/>
<path d="M61.5375 40.7836C61.5375 40.3702 61.5187 39.9155 61.4906 39.5269H61.95L61.9687 40.3867H61.9969C62.1937 39.8742 62.6906 39.436 63.3375 39.436C63.3937 39.436 63.4594 39.436 63.5062 39.4525V39.8824C63.4406 39.8742 63.3844 39.8742 63.3094 39.8742C62.625 39.8742 62.1562 40.4198 62.0437 41.0895C62.025 41.2218 62.0062 41.3623 62.0062 41.5028V44.0244H61.5187V40.7836H61.5375Z" fill="#343741"/>
<path d="M64.3969 41.693C64.3969 43.2391 65.2313 43.7268 66.1406 43.7268C66.7594 43.7268 67.1063 43.6111 67.3594 43.4953L67.4813 43.8343C67.275 43.9418 66.7969 44.1071 66.0656 44.1071C64.7063 44.1071 63.9 43.1729 63.9 41.8418C63.9 40.362 64.7531 39.436 65.9625 39.436C67.4344 39.436 67.7344 40.734 67.7344 41.4285C67.7344 41.5442 67.7344 41.6186 67.725 41.7013H64.3875L64.3969 41.693ZM67.2281 41.3458C67.2469 40.5769 66.8813 39.7998 65.8969 39.7998C64.9125 39.7998 64.5 40.6431 64.4156 41.3458H67.2188H67.2281ZM67.1906 37.6089L65.9438 38.8821H65.5688L66.4875 37.6089H67.1906Z" fill="#343741"/>
<path d="M71.4375 44.0245L71.3718 43.4292H71.3437C71.1093 43.7764 70.6125 44.1237 69.9187 44.1237C69.0093 44.1237 68.5312 43.5367 68.5312 42.8918C68.5312 41.8419 69.5343 41.2466 71.3343 41.2631V41.1308C71.3343 40.5935 71.2218 39.8163 70.1531 39.8163C69.7687 39.8163 69.3562 39.9155 69.0375 40.1139L68.8875 39.7915C69.2625 39.56 69.7781 39.4443 70.2187 39.4443C71.4562 39.4443 71.8218 40.2297 71.8218 41.1143V42.9828C71.8218 43.33 71.8312 43.7103 71.8875 44.0327H71.4375V44.0245ZM71.3343 41.6186C70.4343 41.6021 69.0468 41.7096 69.0468 42.8257C69.0468 43.4788 69.4968 43.7516 69.9656 43.7516C70.6875 43.7516 71.1281 43.33 71.2781 42.867C71.3156 42.7678 71.325 42.6686 71.325 42.5942V41.6186H71.3343Z" fill="#343741"/>
<path d="M76.9969 37.427V43.0158C76.9969 43.3134 77.0156 43.7516 77.0437 44.0244H76.6031L76.5656 43.2473H76.5375C76.3125 43.6937 75.7781 44.1154 74.9437 44.1154C73.8469 44.1154 72.975 43.2638 72.975 41.8335C72.975 40.3041 73.9219 39.4277 75.0281 39.4277C75.7406 39.4277 76.2469 39.7501 76.4812 40.1552H76.5V37.4187H76.9875L76.9969 37.427ZM76.5094 41.2879C76.5094 41.1721 76.5 41.0233 76.4719 40.9076C76.3312 40.3041 75.7875 39.808 75.0656 39.808C74.0531 39.808 73.4812 40.6926 73.4812 41.8087C73.4812 42.8174 73.9687 43.7599 75.0281 43.7599C75.6281 43.7599 76.2375 43.4209 76.4625 42.6355C76.5 42.528 76.5094 42.4123 76.5094 42.28V41.2879Z" fill="#343741"/>
<path d="M81.075 44.0245L81.0094 43.4292H80.9813C80.7469 43.7764 80.25 44.1237 79.5563 44.1237C78.6469 44.1237 78.1688 43.5367 78.1688 42.8918C78.1688 41.8419 79.1719 41.2466 80.9719 41.2631V41.1308C80.9719 40.5935 80.8594 39.8163 79.7906 39.8163C79.3969 39.8163 78.9938 39.9155 78.675 40.1139L78.525 39.7915C78.9 39.56 79.4156 39.4443 79.8563 39.4443C81.0938 39.4443 81.4594 40.2297 81.4594 41.1143V42.9828C81.4594 43.33 81.4688 43.7103 81.525 44.0327H81.075V44.0245ZM80.9719 41.6186C80.0719 41.6021 78.6844 41.7096 78.6844 42.8257C78.6844 43.4788 79.1344 43.7516 79.6031 43.7516C80.325 43.7516 80.7656 43.33 80.9156 42.867C80.9531 42.7678 80.9625 42.6686 80.9625 42.5942V41.6186H80.9719Z" fill="#343741"/>
<path d="M82.9875 40.9489C82.9875 40.3206 82.9687 39.899 82.9406 39.5269H83.4094L83.4375 40.3041H83.4562C83.8125 39.7253 84.375 39.436 85.0969 39.436C86.2406 39.436 87.0562 40.3041 87.0562 41.7178C87.0562 43.3548 86.0625 44.1154 84.975 44.1154C84.3094 44.1154 83.775 43.826 83.4844 43.363H83.4656V45.8598H82.9781V40.9489H82.9875ZM83.475 42.2883C83.475 42.4123 83.4844 42.5363 83.5125 42.652C83.7094 43.3961 84.3375 43.7599 84.9656 43.7599C86.025 43.7599 86.5687 42.8918 86.5687 41.7426C86.5687 40.7422 86.0437 39.808 84.9937 39.808C84.3281 39.808 83.7094 40.2958 83.5312 40.9737C83.5031 41.0977 83.475 41.23 83.475 41.3458V42.2965V42.2883Z" fill="#343741"/>
<path d="M88.9406 38.262V39.527H90.2438V39.8825H88.9406V42.8422C88.9406 43.4292 89.1469 43.7268 89.625 43.7268C89.85 43.7268 90.0094 43.702 90.1219 43.669L90.1781 43.9997C90.0281 44.0575 89.8312 44.0989 89.55 44.0989C89.2031 44.0989 88.9219 44.0079 88.7344 43.8012C88.5281 43.578 88.4531 43.2308 88.4531 42.743V39.8825H87.6562V39.527H88.4531V38.4108L88.9406 38.262V38.262Z" fill="#343741"/>
<path d="M93.7687 44.0245L93.7031 43.4292H93.675C93.4406 43.7764 92.9437 44.1237 92.25 44.1237C91.3406 44.1237 90.8625 43.5367 90.8625 42.8918C90.8625 41.8419 91.8656 41.2466 93.6656 41.2631V41.1308C93.6656 40.5935 93.5531 39.8163 92.4844 39.8163C92.0906 39.8163 91.6875 39.9155 91.3687 40.1139L91.2187 39.7915C91.5937 39.56 92.1094 39.4443 92.55 39.4443C93.7875 39.4443 94.1531 40.2297 94.1531 41.1143V42.9828C94.1531 43.33 94.1625 43.7103 94.2187 44.0327H93.7687V44.0245ZM93.6656 41.6186C92.7656 41.6021 91.3781 41.7096 91.3781 42.8257C91.3781 43.4788 91.8281 43.7516 92.2969 43.7516C93.0187 43.7516 93.4594 43.33 93.6094 42.867C93.6469 42.7678 93.6562 42.6686 93.6562 42.5942V41.6186H93.6656Z" fill="#343741"/>
<path d="M96.3187 38.262V39.527H97.6219V39.8825H96.3187V42.8422C96.3187 43.4292 96.525 43.7268 97.0031 43.7268C97.2281 43.7268 97.3875 43.702 97.5 43.669L97.5562 43.9997C97.4062 44.0575 97.2094 44.0989 96.9281 44.0989C96.5906 44.0989 96.3 44.0079 96.1125 43.8012C95.9062 43.578 95.8312 43.2308 95.8312 42.743V39.8825H95.0344V39.527H95.8312V38.4108L96.3187 38.262V38.262Z" fill="#343741"/>
<path d="M99.2813 38.2786C99.2813 38.4935 99.1406 38.6589 98.8781 38.6589C98.6625 38.6589 98.5031 38.4935 98.5031 38.2786C98.5031 38.0636 98.6719 37.9066 98.8969 37.9066C99.1406 37.9066 99.2813 38.0719 99.2813 38.2786M98.6438 39.527H99.1313V44.0245H98.6438V39.527Z" fill="#343741"/>
<path d="M104.588 41.7426C104.588 43.4126 103.453 44.1154 102.422 44.1154C101.278 44.1154 100.341 43.2804 100.341 41.8005C100.341 40.2297 101.372 39.436 102.497 39.436C103.697 39.436 104.588 40.2875 104.588 41.7509M100.838 41.7922C100.838 42.8008 101.456 43.7599 102.45 43.7599C103.444 43.7599 104.081 42.7926 104.081 41.7674C104.081 40.9737 103.669 39.808 102.459 39.808C101.25 39.808 100.828 40.8993 100.828 41.7922" fill="#343741"/>
<path d="M105.797 40.5934C105.797 40.1387 105.778 39.8742 105.75 39.5269H106.2L106.228 40.2627H106.247C106.5 39.7997 107.062 39.436 107.812 39.436C108.319 39.436 109.406 39.684 109.406 41.2052V44.0244H108.919V41.2796C108.919 40.519 108.628 39.808 107.681 39.808C107.053 39.808 106.509 40.2214 106.331 40.8166C106.294 40.9324 106.275 41.0729 106.275 41.2135V44.0244H105.787V40.5934H105.797Z" fill="#343741"/>
<path d="M115.594 44.0245L115.528 43.4292H115.5C115.266 43.7764 114.769 44.1237 114.075 44.1237C113.166 44.1237 112.688 43.5367 112.688 42.8918C112.688 41.8419 113.691 41.2466 115.491 41.2631V41.1308C115.491 40.5935 115.378 39.8163 114.309 39.8163C113.916 39.8163 113.513 39.9155 113.194 40.1139L113.044 39.7915C113.419 39.56 113.934 39.4443 114.375 39.4443C115.613 39.4443 115.978 40.2297 115.978 41.1143V42.9828C115.978 43.33 115.988 43.7103 116.044 44.0327H115.594V44.0245ZM115.491 41.6186C114.591 41.6021 113.203 41.7096 113.203 42.8257C113.203 43.4788 113.653 43.7516 114.122 43.7516C114.844 43.7516 115.284 43.33 115.434 42.867C115.472 42.7678 115.481 42.6686 115.481 42.5942V41.6186H115.491Z" fill="#343741"/>
<path d="M121.05 42.9166C121.05 43.3465 121.069 43.702 121.087 44.0245H120.637L120.6 43.3217H120.581C120.366 43.6607 119.85 44.1154 119.044 44.1154C118.341 44.1154 117.478 43.7351 117.478 42.2304V39.5269H117.966V42.1395C117.966 43.0572 118.247 43.7351 119.156 43.7351C119.869 43.7351 120.319 43.2473 120.478 42.8587C120.525 42.7182 120.553 42.5611 120.553 42.3875V39.5187H121.041V42.9084L121.05 42.9166Z" fill="#343741"/>
<path d="M122.597 39.5269L123.384 40.6182C123.581 40.8828 123.731 41.1225 123.909 41.4036H123.928C124.106 41.1143 124.284 40.8745 124.462 40.6182L125.241 39.5269H125.784L124.162 41.7261L125.822 44.0244H125.269L124.462 42.8918C124.266 42.619 124.097 42.3627 123.9 42.0568H123.881C123.712 42.3544 123.525 42.6024 123.319 42.8918L122.522 44.0244H121.969L123.656 41.7343L122.062 39.5269H122.606H122.597Z" fill="#343741"/>
<path d="M128.803 39.5269L129.881 42.3379C130.041 42.7182 130.181 43.1067 130.303 43.4788H130.331C130.444 43.1233 130.603 42.7264 130.762 42.3379L131.841 39.5269H132.356L130.509 44.0244H130.078L128.287 39.5269H128.803V39.5269Z" fill="#343741"/>
<path d="M133.312 41.693C133.312 43.2391 134.147 43.7268 135.056 43.7268C135.675 43.7268 136.022 43.6111 136.275 43.4953L136.397 43.8343C136.181 43.9418 135.712 44.1071 134.981 44.1071C133.622 44.1071 132.816 43.1729 132.816 41.8418C132.816 40.362 133.669 39.436 134.878 39.436C136.35 39.436 136.659 40.734 136.659 41.4285C136.659 41.5442 136.659 41.6186 136.65 41.7013H133.312V41.693ZM136.144 41.3458C136.162 40.5769 135.797 39.7998 134.822 39.7998C133.847 39.7998 133.425 40.6431 133.341 41.3458H136.144ZM136.106 37.6089L134.859 38.8821H134.484L135.403 37.6089H136.106V37.6089Z" fill="#343741"/>
<path d="M138.525 38.262V39.527H139.828V39.8825H138.525V42.8422C138.525 43.4292 138.731 43.7268 139.209 43.7268C139.434 43.7268 139.594 43.702 139.706 43.669L139.763 43.9997C139.613 44.0575 139.416 44.0989 139.134 44.0989C138.797 44.0989 138.506 44.0079 138.319 43.8012C138.113 43.578 138.038 43.2308 138.038 42.743V39.8825H137.241V39.527H138.038V38.4108L138.525 38.262V38.262Z" fill="#343741"/>
<path d="M140.887 41.693C140.887 43.2391 141.722 43.7268 142.631 43.7268C143.25 43.7268 143.597 43.6111 143.85 43.4953L143.972 43.8343C143.756 43.9418 143.287 44.1071 142.556 44.1071C141.197 44.1071 140.391 43.1729 140.391 41.8418C140.391 40.362 141.253 39.436 142.453 39.436C143.925 39.436 144.225 40.734 144.225 41.4285C144.225 41.5442 144.225 41.6186 144.216 41.7013H140.878L140.887 41.693ZM143.719 41.3458C143.738 40.5769 143.372 39.7998 142.388 39.7998C141.403 39.7998 140.991 40.6431 140.906 41.3458H143.709H143.719ZM143.681 37.6089L142.434 38.8821H142.059L142.978 37.6089H143.681V37.6089Z" fill="#343741"/>
<path d="M145.416 40.7836C145.416 40.3702 145.397 39.9155 145.369 39.5269H145.828L145.847 40.3867H145.875C146.072 39.8742 146.569 39.436 147.216 39.436C147.272 39.436 147.338 39.436 147.384 39.4525V39.8824C147.319 39.8742 147.262 39.8742 147.187 39.8742C146.503 39.8742 146.034 40.4198 145.922 41.0895C145.903 41.2218 145.884 41.3623 145.884 41.5028V44.0244H145.397V40.7836H145.416Z" fill="#343741"/>
<path d="M150.769 44.0245L150.703 43.4292H150.675C150.441 43.7764 149.944 44.1237 149.25 44.1237C148.341 44.1237 147.862 43.5367 147.862 42.8918C147.862 41.8419 148.866 41.2466 150.666 41.2631V41.1308C150.666 40.5935 150.553 39.8163 149.484 39.8163C149.091 39.8163 148.687 39.9155 148.369 40.1139L148.219 39.7915C148.594 39.56 149.109 39.4443 149.55 39.4443C150.787 39.4443 151.153 40.2297 151.153 41.1143V42.9828C151.153 43.33 151.162 43.7103 151.219 44.0327H150.769V44.0245ZM150.666 41.6186C149.766 41.6021 148.378 41.7096 148.378 42.8257C148.378 43.4788 148.828 43.7516 149.297 43.7516C150.019 43.7516 150.459 43.33 150.609 42.867C150.647 42.7678 150.656 42.6686 150.656 42.5942V41.6186H150.666Z" fill="#343741"/>
<path d="M152.691 40.5934C152.691 40.1387 152.672 39.8742 152.644 39.5269H153.094L153.122 40.2627H153.141C153.394 39.7997 153.956 39.436 154.706 39.436C155.212 39.436 156.3 39.684 156.3 41.2052V44.0244H155.812V41.2796C155.812 40.519 155.522 39.808 154.575 39.808C153.947 39.808 153.403 40.2214 153.225 40.8166C153.187 40.9324 153.169 41.0729 153.169 41.2135V44.0244H152.681V40.5934H152.691Z" fill="#343741"/>
<path d="M157.659 43.4457C157.903 43.5863 158.269 43.7351 158.691 43.7351C159.412 43.7351 159.778 43.3631 159.778 42.8918C159.778 42.4206 159.497 42.1477 158.822 41.8666C158.072 41.5607 157.603 41.1804 157.603 40.6183C157.603 39.9569 158.184 39.4277 159.075 39.4277C159.516 39.4277 159.881 39.5517 160.116 39.7006L159.909 40.0561C159.731 39.9403 159.441 39.7998 159.009 39.7998C158.409 39.7998 158.091 40.1635 158.091 40.5521C158.091 40.9903 158.391 41.1887 159.028 41.4698C159.75 41.7674 160.266 42.1312 160.266 42.8174C160.266 43.6276 159.591 44.1071 158.653 44.1071C158.203 44.1071 157.772 43.9914 157.472 43.8095L157.65 43.4457H157.659Z" fill="#343741"/>
<path d="M166.772 43.8509C166.556 43.9501 166.097 44.1154 165.478 44.1154C164.147 44.1154 163.256 43.2143 163.256 41.8253C163.256 40.4364 164.222 39.4443 165.638 39.4443C166.153 39.4443 166.594 39.5766 166.781 39.684L166.613 40.0478C166.406 39.9403 166.069 39.8163 165.581 39.8163C164.353 39.8163 163.753 40.7753 163.753 41.8005C163.753 42.9828 164.494 43.7351 165.553 43.7351C166.05 43.7351 166.388 43.6111 166.641 43.5119L166.772 43.8509V43.8509Z" fill="#343741"/>
<path d="M170.344 44.0245L170.278 43.4292H170.25C170.016 43.7764 169.519 44.1237 168.825 44.1237C167.916 44.1237 167.437 43.5367 167.437 42.8918C167.437 41.8419 168.441 41.2466 170.241 41.2631V41.1308C170.241 40.5935 170.128 39.8163 169.059 39.8163C168.666 39.8163 168.262 39.9155 167.944 40.1139L167.794 39.7915C168.169 39.56 168.684 39.4443 169.125 39.4443C170.362 39.4443 170.728 40.2297 170.728 41.1143V42.9828C170.728 43.33 170.737 43.7103 170.794 44.0327H170.344V44.0245ZM170.241 41.6186C169.341 41.6021 167.953 41.7096 167.953 42.8257C167.953 43.4788 168.403 43.7516 168.872 43.7516C169.594 43.7516 170.034 43.33 170.184 42.867C170.222 42.7678 170.231 42.6686 170.231 42.5942V41.6186H170.241Z" fill="#343741"/>
<path d="M172.266 40.5934C172.266 40.1387 172.247 39.8742 172.219 39.5269H172.669L172.697 40.2627H172.716C172.969 39.7997 173.531 39.436 174.281 39.436C174.787 39.436 175.875 39.684 175.875 41.2052V44.0244H175.388V41.2796C175.388 40.519 175.097 39.808 174.15 39.808C173.522 39.808 172.978 40.2214 172.8 40.8166C172.763 40.9324 172.744 41.0729 172.744 41.2135V44.0244H172.256V40.5934H172.266Z" fill="#343741"/>
<path d="M179.934 44.0245L179.869 43.4292H179.841C179.606 43.7764 179.109 44.1237 178.416 44.1237C177.506 44.1237 177.028 43.5367 177.028 42.8918C177.028 41.8419 178.031 41.2466 179.831 41.2631V41.1308C179.831 40.5935 179.719 39.8163 178.65 39.8163C178.256 39.8163 177.853 39.9155 177.534 40.1139L177.384 39.7915C177.759 39.56 178.275 39.4443 178.716 39.4443C179.953 39.4443 180.319 40.2297 180.319 41.1143V42.9828C180.319 43.33 180.328 43.7103 180.384 44.0327H179.934V44.0245ZM179.831 41.6186C178.931 41.6021 177.544 41.7096 177.544 42.8257C177.544 43.4788 177.994 43.7516 178.463 43.7516C179.184 43.7516 179.625 43.33 179.775 42.867C179.813 42.7678 179.822 42.6686 179.822 42.5942V41.6186H179.831Z" fill="#343741"/>
<path d="M185.503 37.427V43.0158C185.503 43.3134 185.522 43.7516 185.55 44.0244H185.109L185.072 43.2473H185.044C184.819 43.6937 184.284 44.1154 183.45 44.1154C182.353 44.1154 181.481 43.2638 181.481 41.8335C181.481 40.3041 182.428 39.4277 183.534 39.4277C184.247 39.4277 184.753 39.7501 184.988 40.1552H185.006V37.4187H185.494L185.503 37.427ZM185.016 41.2879C185.016 41.1721 185.006 41.0233 184.978 40.9076C184.838 40.3041 184.294 39.808 183.572 39.808C182.559 39.808 181.988 40.6926 181.988 41.8087C181.988 42.8174 182.475 43.7599 183.534 43.7599C184.134 43.7599 184.744 43.4209 184.969 42.6355C185.006 42.528 185.016 42.4123 185.016 42.28V41.2879V41.2879Z" fill="#343741"/>
<path d="M187.706 38.2786C187.706 38.4935 187.556 38.6589 187.303 38.6589C187.088 38.6589 186.928 38.4935 186.928 38.2786C186.928 38.0636 187.097 37.9066 187.322 37.9066C187.566 37.9066 187.716 38.0719 187.716 38.2786M187.078 39.527H187.566V44.0245H187.078V39.527Z" fill="#343741"/>
<path d="M189.262 41.693C189.262 43.2391 190.097 43.7268 191.006 43.7268C191.625 43.7268 191.972 43.6111 192.225 43.4953L192.347 43.8343C192.141 43.9418 191.662 44.1071 190.931 44.1071C189.572 44.1071 188.766 43.1729 188.766 41.8418C188.766 40.362 189.628 39.4277 190.828 39.4277C192.3 39.4277 192.6 40.7257 192.6 41.4202C192.6 41.5359 192.6 41.6104 192.591 41.693H189.253H189.262ZM192.094 41.3458C192.112 40.5769 191.747 39.7998 190.762 39.7998C189.778 39.7998 189.366 40.6431 189.281 41.3458H192.084H192.094Z" fill="#343741"/>
<path d="M193.8 40.5934C193.8 40.1387 193.781 39.8742 193.753 39.5269H194.203L194.241 40.2627H194.259C194.512 39.7997 195.075 39.436 195.825 39.436C196.331 39.436 197.419 39.684 197.419 41.2052V44.0244H196.931V41.2796C196.931 40.519 196.641 39.808 195.694 39.808C195.066 39.808 194.522 40.2214 194.344 40.8166C194.306 40.9324 194.287 41.0729 194.287 41.2135V44.0244H193.8V40.5934V40.5934Z" fill="#343741"/>
<path d="M198.769 43.4457C199.013 43.5863 199.378 43.7351 199.8 43.7351C200.522 43.7351 200.888 43.3631 200.888 42.8918C200.888 42.4206 200.606 42.1477 199.931 41.8666C199.181 41.5607 198.713 41.1804 198.713 40.6183C198.713 39.9569 199.294 39.4277 200.184 39.4277C200.625 39.4277 200.991 39.5517 201.225 39.7006L201.028 40.0561C200.85 39.9403 200.559 39.7998 200.128 39.7998C199.528 39.7998 199.209 40.1635 199.209 40.5521C199.209 40.9903 199.509 41.1887 200.147 41.4698C200.869 41.7674 201.384 42.1312 201.384 42.8174C201.384 43.6276 200.709 44.1071 199.772 44.1071C199.322 44.1071 198.891 43.9914 198.591 43.8095L198.769 43.4457V43.4457Z" fill="#343741"/>
<path d="M26.3344 16.6838C26.0344 17.1468 19.5563 25.2986 18.45 30.5484C17.6063 34.5416 17.9719 39.3699 18.0094 41.3293C15.4406 39.1632 10.5281 36.8979 10.5281 36.8979C12.8625 36.4845 14.5125 37.303 14.1563 35.9719C13.7906 34.6408 9.50625 33.5826 6.3 32.3011C3.10312 31.0197 0.46875 31.0197 0.46875 31.0197C0.46875 31.0197 4.425 29.8622 5.14687 29.0603C5.86875 28.2583 4.7625 26.6792 3.975 25.249C3.1875 23.8104 0 21.1235 0 21.1235C3.80625 20.9664 7.49062 22.1735 9.12187 21.5369C10.7531 20.9003 9.825 17.4114 9.825 17.4114C12.0562 18.5275 16.9875 21.388 16.9875 21.388C16.9875 21.388 17.2313 16.3283 17.5313 14.9973C17.8313 13.6662 19.3406 6.20892 19.3406 6.20892C19.3406 6.20892 20.1844 8.17658 22.3031 8.34193C24.4125 8.49902 26.1656 7.06874 28.2188 5.7294C30.2719 4.39834 35.5219 0.992126 35.5219 0.992126C35.5219 0.992126 35.0344 6.47348 36.1875 8.39154C37.3312 10.3096 43.0687 9.50765 43.0687 9.50765C43.0687 9.50765 38.7 13.3851 36.0656 16.3201C34.5938 17.9653 35.6719 18.5027 32.6531 21.9585C30.3469 24.5958 26.25 25.3812 23.3719 27.8119C22.4438 28.5973 21.0844 30.102 20.175 31.5323C19.725 27.4399 26.3344 16.6756 26.3344 16.6756" fill="#ED1C24"/>
<path d="M20.9344 44.1567C19.9312 40.6513 19.5375 35.6743 24.1219 31.1519C28.0031 27.3241 32.2969 26.6958 34.3406 24.786C37.35 21.9668 37.0594 20.2637 37.65 20.1066C38.2875 19.933 40.1906 20.9168 39.1031 24.1163C38.2125 26.7288 34.6781 28.1508 35.9062 30.8543C36.9281 33.1113 44.6812 32.8633 50.025 31.061C53.7281 29.8126 55.3594 28.3245 56.0156 28.5642C56.6812 28.804 56.2219 29.9449 55.3594 30.7303C54.4969 31.5157 51.4969 34.3267 42.9562 36.1455C34.4156 37.9644 32.9812 36.6002 27.8062 38.9317C23.6531 40.8001 22.3219 44.3551 22.125 45.3803C21.9187 46.4303 21.5344 46.1988 20.9531 44.1567M38.6437 31.4909C38.5031 31.4992 38.5031 31.6728 38.6344 31.6976C39.9375 31.896 42.7031 32.1523 45.8437 31.3752C50.1656 30.3087 52.0875 29.0107 53.2594 27.1918C54.4312 25.373 54.6 24.1328 53.6344 23.9592C52.6594 23.7856 51.3281 27.1422 47.2406 29.2008C42.6562 31.5157 40.2562 31.3504 38.6437 31.4909ZM39.4687 30.8626C39.3844 30.8874 39.3562 31.0114 39.4312 31.0114C40.1719 31.0114 41.7656 30.8874 43.725 29.978C46.425 28.7296 48.0094 27.7457 48.9656 26.3072C49.9125 24.8686 50.4469 22.4793 49.1156 22.4628C48.3094 22.4628 48.4031 25.5714 44.8594 28.2583C41.8969 30.4988 40.4344 30.5732 39.4687 30.8543M40.2844 30.0441C40.2844 30.0441 40.2094 30.1598 40.2562 30.1433C40.65 30.0524 41.5219 29.763 42.6469 28.9115C44.1937 27.7457 45.0187 26.828 45.6375 25.7533C46.2656 24.6785 46.2187 22.2975 45.0469 22.562C44.6156 22.6612 44.9719 25.406 43.2469 27.4812C41.6156 29.4406 40.8187 29.7382 40.2844 30.0441" fill="#343741"/>
<path d="M202.5 24.3974H61.5094V24.786H202.5V24.3974Z" fill="#343741"/>
</svg>
